<svg xmlns="http://www.w3.org/2000/svg" viewBox="0 0 128 128" role="img" aria-label="Flower tribute icon">
  <defs>
    <linearGradient id="petal" x1="0" x2="1" y1="0" y2="1">
      <stop offset="0%" stop-color="#a16207"/>
      <stop offset="100%" stop-color="#78350f"/>
    </linearGradient>
  </defs>
  <rect width="128" height="128" rx="18" fill="#fffaf0"/>
  <g transform="translate(64 58)">
    <ellipse rx="10" ry="18" fill="url(#petal)" transform="rotate(0) translate(0,-20)"/>
    <ellipse rx="10" ry="18" fill="url(#petal)" transform="rotate(72) translate(0,-20)"/>
    <ellipse rx="10" ry="18" fill="url(#petal)" transform="rotate(144) translate(0,-20)"/>
    <ellipse rx="10" ry="18" fill="url(#petal)" transform="rotate(216) translate(0,-20)"/>
    <ellipse rx="10" ry="18" fill="url(#petal)" transform="rotate(288) translate(0,-20)"/>
    <circle r="10" fill="#d97706"/>
  </g>
  <path d="M64 66c0 17-8 27-18 38" fill="none" stroke="#4d7c0f" stroke-width="5" stroke-linecap="round"/>
  <path d="M64 68c0 15 7 25 18 34" fill="none" stroke="#4d7c0f" stroke-width="5" stroke-linecap="round"/>
  <path d="M54 86c-10-2-16 3-20 10 9 2 16-1 20-10z" fill="#65a30d"/>
  <path d="M74 90c10-1 15 4 19 10-9 2-16-1-19-10z" fill="#65a30d"/>
</svg>
